<?xml version="1.0" encoding="iso-8859-1"?>
<!-- Generator: Adobe Illustrator 16.0.0, SVG Export Plug-In . SVG Version: 6.00 Build 0)  -->
<!DOCTYPE svg PUBLIC "-//W3C//DTD SVG 1.1//EN" "http://www.w3.org/Graphics/SVG/1.1/DTD/svg11.dtd">
<svg version="1.1" id="Capa_1" xmlns="http://www.w3.org/2000/svg" xmlns:xlink="http://www.w3.org/1999/xlink" x="0px" y="0px"
	 width="139.301px" height="139.301px" viewBox="0 0 139.301 139.301" style="enable-background:new 0 0 139.301 139.301;"
	 xml:space="preserve">
<g>
	<path d="M130.296,46.463c-6.148-6.874-14.755-10.676-24.258-10.702c-0.042,0-0.095,0-0.132,0c-19.053,0-30.391,12.026-39.738,24.59
		c-2.623,3.204-6.718,6.173-11.934,3.23c-3.219-1.809-4.364-5.901-2.56-9.115c1.334-2.365,4.348-3.201,6.713-1.875
		c0.815,0.459,1.397,1.205,1.653,2.106c0.258,0.902,0.14,1.854-0.324,2.668c-0.303,0.541-0.789,0.896-1.339,1.073
		c-0.335-1.218-1.503-2.051-2.782-1.862c-1.35,0.206-2.262,1.424-2.138,2.758c-0.417,1-0.066,2.162,0.902,2.7
		c3.22,1.799,7.312,0.665,9.115-2.552c1.021-1.819,1.273-3.937,0.717-5.957c-0.562-2.014-1.877-3.688-3.702-4.709
		C56.054,46.312,50.4,47.9,47.891,52.343c-2.966,5.292-1.076,12.021,4.2,14.998c2.072,1.165,4.206,1.737,6.307,1.737
		c0.541,0,1.057-0.14,1.582-0.216c-1.864,2.603-3.715,5.173-5.643,7.599c-4.44,5.59-8.258,10.262-11.96,13.869
		c-0.461,0.042-0.92,0.2-1.281,0.538c-7.699,7.208-15.686,8.205-22.512,2.763c-5.287-4.208-6.172-11.944-1.964-17.233
		c3.238-4.047,9.146-4.722,13.191-1.492c1.474,1.171,2.407,2.843,2.618,4.725c0.216,1.883-0.324,3.718-1.495,5.21
		c-0.788,0.997-1.901,1.582-3.127,1.82c0.119-0.38,0.243-0.781,0.243-1.213c0-2.278-1.851-4.135-4.142-4.135
		c-2.284,0-4.14,1.846-4.14,4.135c0,0.601,0.134,1.165,0.361,1.677c-0.082,0.717,0.156,1.455,0.762,1.93
		c1.996,1.593,4.498,2.305,7.029,2.015c2.534-0.295,4.802-1.545,6.389-3.533c1.906-2.373,2.753-5.363,2.407-8.396
		c-0.345-3.026-1.84-5.724-4.221-7.615c-5.914-4.714-14.544-3.731-19.264,2.172c-5.334,6.729-4.546,16.316,1.487,22.175
		c-2.494-1.429-4.709-3.349-6.455-5.784c-3.304-4.625-4.622-10.505-3.623-16.101c1.592-8.861,10.099-14.771,18.96-13.188
		c1.166,0.211,2.299-0.572,2.51-1.743c0.211-1.179-0.567-2.294-1.746-2.505C13.131,54.526,2.404,62.02,0.396,73.215
		c-1.208,6.748,0.379,13.814,4.369,19.383c3.889,5.432,9.603,8.976,16.097,9.978c16.298,2.468,25.824-9.524,36.861-23.436
		c0.053-0.063,0.113-0.137,0.166-0.211c0.008-0.011,0.019-0.011,0.024-0.021c2.834-3.144,7.312-6.168,12.519-2.722
		c3.064,2.046,3.918,6.212,1.894,9.271c-1.498,2.247-4.559,2.858-6.826,1.361c-0.784-0.527-1.313-1.313-1.496-2.231
		c-0.185-0.912,0-1.851,0.512-2.6c0.385-0.575,0.984-0.917,1.617-1.018c0.306,1.176,1.387,2.02,2.634,1.914
		c1.399-0.11,2.426-1.35,2.31-2.742c0-0.016-0.011-0.031-0.021-0.053c0.243-0.875-0.058-1.846-0.854-2.373
		c-3.069-2.035-7.228-1.202-9.276,1.867c-1.155,1.729-1.563,3.808-1.149,5.854c0.411,2.062,1.598,3.828,3.343,4.988
		c1.571,1.034,3.354,1.54,5.107,1.54c2.993,0,5.931-1.445,7.702-4.113c3.344-5.036,1.951-11.876-3.096-15.248
		c-2.792-1.846-5.761-2.494-8.709-2.067c0.303-0.427,0.604-0.844,0.912-1.273c1.535-2.162,3.083-4.327,4.665-6.455
		c0.076-0.092,0.152-0.15,0.221-0.237c0.04-0.047,0.056-0.113,0.087-0.166c8.873-11.854,19.014-22.319,35.889-22.319
		c0.037,0,0.09,0,0.121,0c8.248,0.029,15.736,3.316,21.041,9.268c5.959,6.668,8.775,16.108,7.71,25.885
		c-0.78,7.135-4.292,13.542-9.882,18.046c-5.168,4.155-11.56,6.106-18.114,5.79c-3.981-0.675-7.083-2.437-9.129-5.337
		c-2.446-3.448-3.248-8.289-2.183-13.289c0.675-3.195,2.562-5.948,5.305-7.73c2.753-1.788,6.022-2.381,9.229-1.717
		c2.452,0.525,4.566,1.973,5.928,4.068c1.36,2.1,1.829,4.604,1.308,7.062c-0.391,1.835-1.466,3.412-3.038,4.445
		c-1.582,1.034-3.49,1.366-5.336,0.991c-1.203-0.253-2.205-0.959-2.959-1.908c1.804-0.465,3.148-2.047,3.127-3.992
		c-0.026-2.278-1.908-4.108-4.197-4.076c-1.218,0.016-2.278,0.58-3.021,1.429c-0.586,0.279-1.055,0.775-1.208,1.461
		c-0.538,2.489-0.063,5.041,1.318,7.172c1.403,2.141,3.539,3.617,6.038,4.149c3.001,0.628,6.038,0.069,8.602-1.598
		c2.541-1.666,4.281-4.208,4.894-7.172c0.77-3.58,0.095-7.234-1.909-10.31c-1.999-3.077-5.073-5.184-8.648-5.94
		c-4.34-0.917-8.775-0.095-12.487,2.318c-3.713,2.416-6.271,6.127-7.183,10.462c-0.971,4.562-0.628,9.065,0.875,12.894
		c-0.369-0.396-0.791-0.732-1.123-1.154c-3.527-4.377-5.131-9.883-4.52-15.479c0.986-9.001,9.123-15.503,18.109-14.552
		c1.213,0.166,2.252-0.73,2.384-1.914c0.126-1.187-0.728-2.252-1.914-2.381c-11.359-1.247-21.632,7.011-22.871,18.378
		C81.422,82.098,83.362,88.727,87.607,94c4.245,5.295,10.299,8.617,17.038,9.345c0.676,0.074,1.351,0.074,2.025,0.105
		c0.101,0.026,0.189,0.063,0.295,0.074c0.09,0.011,0.18,0.016,0.274,0.016c0.042,0,0.074-0.037,0.116-0.042
		c0.242,0.005,0.496,0.042,0.738,0.042c7.077,0,13.88-2.378,19.47-6.871c6.507-5.221,10.578-12.656,11.475-20.946
		C140.278,64.693,137.077,54.038,130.296,46.463z"/>
</g>
<g>
</g>
<g>
</g>
<g>
</g>
<g>
</g>
<g>
</g>
<g>
</g>
<g>
</g>
<g>
</g>
<g>
</g>
<g>
</g>
<g>
</g>
<g>
</g>
<g>
</g>
<g>
</g>
<g>
</g>
</svg>
