<?xml version="1.0" standalone="no"?>
<!DOCTYPE svg PUBLIC "-//W3C//DTD SVG 20010904//EN"
 "http://www.w3.org/TR/2001/REC-SVG-20010904/DTD/svg10.dtd">
<svg version="1.0" xmlns="http://www.w3.org/2000/svg"
 width="512.000000pt" height="512.000000pt" viewBox="0 0 512.000000 512.000000"
 preserveAspectRatio="xMidYMid meet">
<metadata>
Created by potrace 1.11, written by Peter Selinger 2001-2013
</metadata>
<g transform="translate(0.000000,512.000000) scale(0.100000,-0.100000)"
fill="#000000" stroke="none">
<path d="M1180 5113 c-168 -18 -362 -73 -504 -145 -495 -248 -736 -821 -575
-1363 117 -393 480 -664 890 -665 249 0 443 74 600 230 97 95 152 185 196 315
24 71 27 96 27 220 1 119 -2 151 -22 212 -12 39 -29 79 -38 87 -27 27 -63 31
-92 9 -32 -24 -34 -68 -9 -178 33 -138 12 -280 -59 -416 -154 -292 -548 -410
-891 -267 -40 16 -75 33 -77 36 -2 4 31 6 74 4 97 -4 210 16 317 57 250 97
397 292 410 546 16 303 -174 543 -455 575 -250 28 -463 -126 -502 -361 -14
-83 -2 -160 40 -246 35 -71 90 -124 170 -162 74 -35 201 -36 271 -2 81 39 116
158 66 232 -29 44 -100 74 -151 65 -50 -9 -103 -59 -116 -107 -6 -21 -15 -39
-20 -39 -4 0 -23 12 -41 27 -46 39 -69 96 -69 174 0 118 63 206 180 250 71 27
191 22 263 -9 72 -33 148 -114 180 -194 127 -318 -105 -628 -488 -655 -266
-18 -474 143 -531 412 -25 118 -23 306 4 418 81 329 303 581 624 708 160 63
402 97 571 80 201 -20 420 -99 554 -198 297 -221 456 -577 439 -983 -14 -343
-151 -653 -465 -1050 -102 -130 -273 -334 -281 -338 -3 -1 -12 20 -18 47 -20
87 -53 143 -127 217 -84 83 -149 114 -261 121 -153 11 -302 -70 -372 -202 -24
-44 -27 -61 -27 -150 0 -115 18 -163 88 -236 58 -60 116 -84 207 -84 82 0 137
21 194 73 87 81 100 224 29 320 -42 56 -66 67 -118 52 -53 -15 -74 -36 -81
-82 -5 -27 -1 -40 20 -65 15 -18 37 -33 49 -35 34 -5 32 -35 -5 -72 -91 -91
-226 -26 -236 113 -15 207 270 298 419 134 52 -57 72 -104 77 -184 7 -125 -22
-194 -157 -372 -181 -238 -332 -471 -393 -606 -153 -336 -152 -621 3 -910 180
-336 573 -524 954 -457 285 50 486 195 601 432 l47 95 22 -54 c102 -253 322
-421 620 -473 400 -70 821 147 986 511 103 227 114 455 34 701 -67 205 -175
386 -463 772 -48 64 -101 146 -117 182 -26 57 -30 76 -30 155 0 73 4 98 22
131 33 61 70 101 122 132 39 23 57 27 121 27 62 0 83 -4 119 -25 88 -50 125
-128 107 -225 -15 -80 -107 -140 -178 -116 -66 22 -110 102 -61 109 31 4 73
58 73 91 0 60 -84 114 -142 92 -75 -29 -125 -160 -99 -258 36 -131 200 -221
337 -184 146 39 256 218 225 368 -24 120 -94 208 -211 266 -59 29 -73 32 -160
32 -127 0 -196 -26 -283 -106 -68 -62 -128 -165 -141 -241 -4 -21 -10 -38 -14
-37 -16 1 -318 380 -419 526 -296 427 -389 808 -297 1208 93 406 373 699 763
801 142 37 290 49 422 34 441 -48 745 -250 910 -604 60 -131 83 -238 83 -396
1 -223 -38 -345 -151 -469 -63 -70 -162 -124 -258 -142 -124 -23 -309 11 -425
79 -170 99 -264 298 -226 481 28 134 85 216 188 272 60 32 68 34 163 34 89 0
105 -3 151 -27 166 -87 202 -296 73 -413 l-42 -38 -14 45 c-33 115 -166 152
-248 70 -49 -49 -58 -108 -26 -177 25 -56 47 -72 121 -91 206 -52 398 85 433
309 43 279 -201 510 -505 476 -278 -32 -473 -280 -455 -579 14 -219 144 -412
342 -509 126 -62 220 -85 351 -85 62 -1 110 -4 108 -8 -10 -15 -156 -68 -233
-83 -224 -46 -479 23 -623 169 -74 74 -120 147 -155 248 -35 96 -37 254 -6
365 23 81 17 106 -30 133 -24 13 -30 13 -54 0 -37 -20 -60 -70 -78 -165 -69
-358 125 -714 463 -851 107 -43 174 -56 312 -61 156 -6 263 13 395 67 226 95
419 292 507 518 137 349 89 759 -124 1069 -175 257 -445 426 -790 495 -166 33
-408 31 -564 -5 -312 -72 -555 -231 -736 -482 -87 -121 -174 -330 -200 -485
-7 -39 -15 -70 -18 -70 -3 0 -11 31 -18 69 -27 160 -112 363 -209 499 -155
217 -410 389 -681 458 -147 37 -332 52 -472 37z m1390 -1532 c0 -10 12 -63 26
-117 62 -239 190 -483 402 -761 182 -239 202 -278 204 -392 3 -186 -172 -330
-341 -281 -132 38 -196 185 -127 291 42 63 115 85 176 54 52 -27 79 -85 40
-85 -34 0 -70 -44 -70 -85 0 -51 13 -70 60 -89 65 -26 94 -21 128 20 82 99 64
263 -38 344 -102 81 -255 80 -358 -1 -37 -28 -89 -105 -97 -140 -8 -37 -22
-37 -30 0 -8 35 -60 112 -97 140 -88 70 -205 81 -307 30 -64 -32 -100 -69
-126 -132 -43 -104 17 -277 97 -277 39 0 107 29 118 51 6 10 10 34 10 54 0 41
-36 85 -70 85 -39 0 -12 58 40 85 94 49 202 -30 203 -148 2 -117 -98 -207
-229 -207 -160 0 -290 164 -263 332 14 89 47 151 156 290 252 324 419 644 465
893 11 61 28 89 28 46z m-756 -1478 c51 -100 144 -181 250 -216 62 -21 175
-22 240 -2 102 31 197 113 233 201 10 24 21 44 24 44 3 0 12 -18 19 -41 17
-50 75 -117 136 -158 109 -72 265 -81 387 -24 117 56 212 176 242 305 l11 50
109 -133 c217 -265 505 -677 505 -722 0 -10 16 -53 36 -95 99 -214 109 -414
30 -570 -39 -77 -110 -157 -183 -205 -89 -58 -139 -76 -227 -84 -130 -10 -245
30 -344 122 -87 80 -125 160 -124 264 1 238 198 391 403 312 68 -25 139 -118
139 -181 0 -27 -2 -30 -19 -20 -32 17 -103 12 -139 -10 -96 -59 -96 -201 0
-260 24 -14 51 -20 95 -20 58 0 66 3 104 37 77 70 109 145 110 261 1 93 -35
175 -108 248 -168 168 -433 159 -601 -20 -107 -114 -155 -262 -134 -407 38
-261 263 -460 539 -476 112 -7 190 7 293 53 l75 34 -50 -46 c-154 -140 -386
-212 -597 -185 -168 22 -308 84 -407 180 -170 166 -229 415 -151 638 36 102
18 156 -50 156 -37 0 -66 -25 -81 -72 -17 -55 -25 -56 -39 -7 -7 25 -21 53
-31 62 -23 21 -72 23 -95 4 -33 -28 -34 -55 -7 -132 24 -66 27 -87 27 -213 0
-128 -2 -146 -26 -207 -62 -156 -160 -264 -303 -333 -285 -140 -625 -96 -850
109 l-50 46 75 -34 c92 -41 159 -56 253 -56 252 1 482 160 558 387 26 78 31
208 10 282 -66 235 -287 391 -498 352 -172 -32 -303 -154 -333 -309 -20 -108
23 -235 107 -312 39 -37 47 -40 100 -40 35 0 72 7 93 18 103 51 108 201 8 262
-36 22 -107 27 -139 10 -17 -10 -19 -7 -19 19 0 43 15 75 55 120 49 54 113 82
189 83 169 2 297 -144 298 -338 0 -99 -38 -180 -124 -259 -126 -117 -304 -155
-456 -99 -119 44 -241 153 -298 266 -80 158 -70 351 31 572 19 43 35 85 35 95
0 43 303 474 516 735 l98 120 13 -57 c7 -31 23 -78 37 -104z"/>
</g>
</svg>
